<?xml version="1.0" encoding="utf-8"?>
<!-- Generator: Adobe Illustrator 14.0.0, SVG Export Plug-In . SVG Version: 6.00 Build 43363)  -->
<!DOCTYPE svg PUBLIC "-//W3C//DTD SVG 1.1//EN" "http://www.w3.org/Graphics/SVG/1.1/DTD/svg11.dtd">
<svg version="1.1" id="Layer_1" xmlns="http://www.w3.org/2000/svg" xmlns:xlink="http://www.w3.org/1999/xlink" x="0px" y="0px"
	 width="568.468px" height="216.516px" viewBox="0 0 568.468 216.516" enable-background="new 0 0 568.468 216.516"
	 xml:space="preserve">
<path fill="#FFFFFF" d="M11.587,213.777C52.01,158.444,97.586,116.39,145.056,83.814c52.336-36.187,108.949-60.702,169.439-68.709
	c29.062-4.037,60.217-3.924,89.861,2.962c-1.582-2.353-3.162-4.729-4.746-7.129c-6.252,28.282-30.391,52.408-54.658,76.19
	c-24.822,24.173-52.754,47.855-78.203,76.287c-5.438,6.133,1.612,15.035,8.25,9.972c59.889-45.965,125.062-84.054,196.468-96.088
	c-1.949-2.191-3.898-4.418-5.85-6.68c-18.629,27.448-55.258,50.179-88.326,74.171c-7.237,5.294-0.641,14.132,6.861,8.763
	c57.682-40.371,120.297-67.994,181.023-93.299c6.873-2.815,1.926-8.619-5.188-6.217c-50.283,17.329-101.498,43.274-134.271,84.248
	c-1.662,2.068-1.092,5.241,1.063,6.164c29.512,12.174,68.549-9.434,102.551-18.705c8.699-2.57,8.707-10.623,0-8.307
	c-16.23,4.324-32.277,10.263-48.482,15c-15.281,4.422-32.045,8.012-44.471,2.723c0.355,2.013,0.707,4.019,1.063,6.021
	c30.438-37.87,79.48-63.264,126.129-80.305c-1.729-2.045-3.459-4.128-5.188-6.248c-60.764,24.226-123.398,50.71-181.09,90.163
	c2.289,2.969,4.574,5.89,6.861,8.763c34.961-25.912,73.484-50.561,93.164-79.208c2.098-3.053-0.375-7.457-5.85-6.597
	c-74.107,10.933-141.107,47.71-203.34,94.444c2.75,3.371,5.499,6.689,8.25,9.954c26.422-29.672,55.368-54.437,81.02-79.568
	c24.723-24.388,48.936-49.579,55.314-77.78c0.607-2.704-0.875-6.068-4.744-7.031c-53.775-13.774-110.436-8.012-159.767,7.746
	C189.702,33.497,135.055,65.672,84.125,110.49c-28.705,25.188-56.476,54.45-82.062,89.32
	C-4.229,208.461,5.302,222.466,11.587,213.777L11.587,213.777z"/>
</svg>
